<svg id="Layer_1" data-name="Layer 1" xmlns="http://www.w3.org/2000/svg" viewBox="0 0 1840.81 395.57"><defs><style>.cls-1{fill:#ff1d25;}</style></defs><path d="M102,153.89,50.09,81.21V191.75H.34V6.59H50.09l64.66,94.79L179.42,6.59h49.74V191.75H179.42V81.21l-51.95,72.68Z" transform="translate(-0.34 -1.07)"/><path d="M336.11,6.59V191.75H286.36V6.59Z" transform="translate(-0.34 -1.07)"/><path d="M535.35,125.42V6.59H585.1V191.75H535.35l-97-118.83V191.75H388.61V6.59h49.74Z" transform="translate(-0.34 -1.07)"/><path d="M692,6.59V191.75H642.3V6.59Z" transform="translate(-0.34 -1.07)"/><path d="M845.69,1.07h7.74c61.9,0,79,24.87,79,55.27v5.52c0,16.31-8,30.4-32.88,37,29,6.64,38.41,21.28,38.41,37.59V142c0,30.39-18.24,55.27-84.56,55.27h-7.74a927.22,927.22,0,0,1-101.14-5.53V6.59A927.25,927.25,0,0,1,845.69,1.07Zm-51.4,46.7V78.44h49.19c44.77,0,44.77-7.18,44.77-16.58,0-9.12-1.38-16.58-41.45-16.58C833.25,45.28,812.53,46.11,794.29,47.77Zm0,74.89v27.91c18.24,1.66,38.69,2.49,53.33,2.49,44.22,0,46.16-7.46,46.16-16.58,0-7.74,0-13.82-50.3-13.82Z" transform="translate(-0.34 -1.07)"/><path d="M1185.32,6.59V114.65c0,45.32-20.73,82.63-94.51,82.63h-10c-73.79,0-94.51-37.31-94.51-82.63V6.59h49.74V107.46c0,24,0,45.6,49.74,45.6s49.75-21.56,49.75-45.6V6.59Z" transform="translate(-0.34 -1.07)"/><path d="M1369.37,137c0-13-11.61-14.92-43.67-15.75-28.18-.83-89.53-2.76-89.53-56.65V61c0-31.78,20.45-60,90.64-60h10a290.93,290.93,0,0,1,72.12,9.12V55.78c-26.8-6.35-53.05-10.22-80.14-10.22-40.07,0-42.83,9.12-42.83,15.47,0,13.27,12.16,15.2,43.39,16,26.25.56,89.81,2.49,89.81,56.93v3.59c0,31.51-20.45,59.7-90.92,59.7h-10a400.9,400.9,0,0,1-82.9-8.85V142c29.84,6.63,63.28,11.05,91.47,11.05C1366.33,153.06,1369.37,143.94,1369.37,137Z" transform="translate(-0.34 -1.07)"/><path class="cls-1" d="M846.11,350.74c0-9.9-8.84-11.37-33.26-12-21.48-.63-68.22-2.11-68.22-43.16v-2.74c0-24.21,15.58-45.69,69.06-45.69h7.58a222,222,0,0,1,55,6.95v34.74c-20.42-4.84-40.43-7.79-61.06-7.79-30.53,0-32.63,6.95-32.63,11.79,0,10.11,9.26,11.58,33.05,12.21,20,.42,68.43,1.9,68.43,43.37v2.74c0,24-15.58,45.48-69.27,45.48h-7.58A305.66,305.66,0,0,1,744,389.9V354.53c22.74,5.05,48.21,8.42,69.69,8.42C843.79,363,846.11,356,846.11,350.74Z" transform="translate(-0.34 -1.07)"/><path class="cls-1" d="M1056.87,285.05H959.81V306.1h76v33.69h-76v18.95h97.06v33.69h-135V251.36h135Z" transform="translate(-0.34 -1.07)"/><path class="cls-1" d="M1201.09,392.43l-28.21-44.22c-15,0-29.06,0-42.53-2.1v46.32h-37.9V251.36a707.77,707.77,0,0,1,77.06-4.21h5.89c47.17,0,60.22,20.85,60.22,46.32v8.42c0,17.69-5.9,33.06-24,40.85l26.1,41.26v8.43Zm-70.74-109.7v29.9a266.16,266.16,0,0,0,33.05,1.9c33.69,0,34.32-5.9,34.32-19.16,0-7.58-.21-14.53-27.79-14.53C1160.25,280.84,1144.25,281.47,1130.35,282.73Z" transform="translate(-0.34 -1.07)"/><path class="cls-1" d="M1426,251.36v8.43l-62.75,132.64h-37.89l-62.74-132.64v-8.43h34.1l47.58,107.38,47.59-107.38Z" transform="translate(-0.34 -1.07)"/><path class="cls-1" d="M1496.49,251.36V392.43h-37.9V251.36Z" transform="translate(-0.34 -1.07)"/><path class="cls-1" d="M1534.39,316.42c0-38.11,16.63-69.27,76.22-69.27h7.57a218.19,218.19,0,0,1,54.32,6.95v34.32c-19.37-5.69-41-7.79-55.37-7.79-44,0-44,17.26-44,41.26s0,41.48,44,41.48a212.15,212.15,0,0,0,55.37-8V389.9a228.46,228.46,0,0,1-54.32,6.74h-7.57c-59.59,0-76.22-31.16-76.22-69.27Z" transform="translate(-0.34 -1.07)"/><path class="cls-1" d="M1841.15,285.05h-97.06V306.1h76v33.69h-76v18.95h97.06v33.69h-135V251.36h135Z" transform="translate(-0.34 -1.07)"/><polygon points="1458.66 108.93 1458.66 83.93 1565.16 96.43 1671.66 108.93 1565.16 121.43 1458.66 133.93 1458.66 108.93"/></svg>