<?xml version="1.0" encoding="UTF-8"?>
<!-- Generator: Adobe Illustrator 26.0.3, SVG Export Plug-In . SVG Version: 6.00 Build 0)  -->
<svg version="1.1" id="Layer_1" xmlns="http://www.w3.org/2000/svg" xmlns:xlink="http://www.w3.org/1999/xlink" x="0px" y="0px" viewBox="0 0 1920 1920" style="enable-background:new 0 0 1920 1920;" xml:space="preserve">
<style type="text/css">
	.st0{fill:none;}
	.st1{fill:#FF0000;}
</style>
<polygon class="st0" points="1526.24,1924 111.57,1924 394.13,844.65 1808.8,844.65 "/>
<g>
	<path class="st1" d="M780.1,1364.81l88.49-508.71l-323.41,419.08h-88.42L280.44,867l-87.78,497.81H8.56l149.5-847.85h162.3   l224.43,526.88l405.4-526.88h161.09l-147.08,847.85H780.1z"/>
	<path class="st1" d="M1113.38,1281.23l92.67-147.77c62.28,52.08,162.46,88.42,264.2,88.42c116.28,0,170.35-38.76,179.53-90.84   c27.98-158.67-484.21-49.66-428.68-364.58c25.42-144.14,162.83-264.05,403.87-264.05c106.59,0,211.11,25.44,281.08,75.1   l-86.83,148.98c-70.83-44.81-148.13-66.62-223.23-66.62c-116.28,0-168.78,43.6-178.18,96.9   c-27.55,156.25,484.42,48.45,429.53,359.73c-24.99,141.71-163.83,262.83-406.08,262.83   C1306.83,1379.34,1178.22,1339.37,1113.38,1281.23z"/>
</g>
<g>
	<rect x="2985.09" y="1269.66" class="st0" width="6.33" height="0"/>
</g>
<g>
</g>
<g>
</g>
<g>
</g>
<g>
</g>
<g>
</g>
<g>
</g>
<g>
</g>
<g>
</g>
<g>
</g>
<g>
</g>
<g>
</g>
<g>
</g>
<g>
</g>
<g>
</g>
<g>
</g>
</svg>